<svg xmlns="http://www.w3.org/2000/svg" width="85.19" height="81.104" viewBox="0 0 85.19 81.104"><g stroke="#c8102e"><path d="M62.999 19.229L75.133 7.095a1.561 1.561 0 00-1.1-2.665H35.994V2.551a1.8 1.8 0 00-3.6 0v53.5a1.8 1.8 0 003.6 0V34.027h38.035a1.561 1.561 0 001.1-2.665zM35.582 7.552h34.679L59.688 18.125a1.561 1.561 0 000 2.208l10.573 10.573H35.582z" fill="#c8102e" stroke-width="1.5"/><path d="M2.25 78.853l15.851-18.981 7.887 7.427 16.928-21.251L58.17 67.299l7.844-7.427 16.923 18.981z" fill="none" stroke-linecap="round" stroke-linejoin="round" stroke-width="4.5"/></g></svg>